<svg xmlns="http://www.w3.org/2000/svg" viewBox="0 0 40 40"><defs><style>.b{fill:none;}.c{fill:#1f26ff;}.d{fill:#0fba55;}</style></defs><path class="c" d="M22.89,25.98l-1.04-3.64h8.27c.76,0,1.18-.32,1.19-.91,0-.58-.42-.92-1.17-.92-3.04,0-6.08,0-9.11-.01-.24,0-.55-.07-.69-.22-2.18-2.39-4.89-3.5-8.11-3.4-.08,0-.16,0-.31-.02-.01-.22-.03-.43-.03-.64V7.11c0-2.04,1.07-3.11,3.1-3.11h12.7v6.66c0,.94,.3,1.24,1.23,1.24h6.67V31.98c0,1.67-.77,2.73-2.19,3.05-.18,.04-.36,.06-.54,.05h-13.85c-.08,0-.16-.01-.37-.03,2.42-1.86,3.81-4.23,4.16-7.25h7.52c.62,0,1-.37,1.01-.89,0-.53-.38-.9-.98-.93-.14,0-.28,0-.43,0h-7.01Zm.89-10.93h-6.56c-.55,0-.96,.18-1.07,.76-.12,.63,.32,1.06,1.06,1.07,2.67,0,5.34,0,8.01,0h5.04c.62,0,1.01-.35,1.03-.88,.02-.58-.38-.94-1.08-.94-2.15-.01-4.29,0-6.43,0h0Z"/><path class="d" d="M20.98,26.88c.01,4.47-3.66,8.19-8.09,8.21-4.6,.02-8.29-3.62-8.3-8.19-.01-4.5,3.67-8.2,8.15-8.21,1.08,0,2.15,.2,3.15,.61,1,.41,1.91,1.01,2.67,1.77,.77,.76,1.37,1.66,1.79,2.66,.42,1,.63,2.06,.63,3.14Zm-9.51,1.37c-.19-.22-.34-.41-.5-.59-.16-.18-.34-.35-.51-.51-.47-.44-1.03-.48-1.4-.11-.38,.37-.37,.91,.1,1.39,.52,.54,1.05,1.07,1.58,1.58,.54,.52,1.03,.51,1.58-.03,.62-.61,1.23-1.23,1.85-1.84,.74-.74,1.5-1.48,2.22-2.24,.4-.42,.39-.94,.02-1.3-.36-.36-.9-.33-1.32,.03-.15,.13-.29,.28-.43,.43l-3.19,3.19Z"/><path class="c" d="M29.52,4.76l5.28,5.28h-5.28V4.76Z"/><rect class="b" width="40" height="40"/></svg>